<mxfile host="app.diagrams.net" modified="2023-12-24T08:24:25.839Z" agent="Mozilla/5.0 (Windows NT 10.0; Win64; x64) AppleWebKit/537.36 (KHTML, like Gecko) Chrome/120.0.0.0 Safari/537.36" etag="DNTDTMMwSUcMiSx2ucbY" version="22.1.11" type="google">
  <diagram name="第1頁" id="iifzhmRzqW0tXl3fbmHp">
    <mxGraphModel grid="1" page="1" gridSize="10" guides="1" tooltips="1" connect="1" arrows="1" fold="1" pageScale="1" pageWidth="827" pageHeight="1169" math="0" shadow="0">
      <root>
        <mxCell id="0" />
        <mxCell id="1" parent="0" />
        <mxCell id="UHteKjYBCO6sBVWpJjxk-1" value="&lt;font style=&quot;font-size: 16px;&quot;&gt;表現層&lt;br&gt;&lt;br&gt;&lt;br&gt;&lt;br&gt;&lt;br&gt;&lt;/font&gt;" style="rounded=0;whiteSpace=wrap;html=1;align=left;" vertex="1" parent="1">
          <mxGeometry x="312" y="30" width="202.5" height="100" as="geometry" />
        </mxCell>
        <mxCell id="UHteKjYBCO6sBVWpJjxk-2" value="&lt;font style=&quot;font-size: 32px;&quot;&gt;客戶端&lt;/font&gt;" style="rounded=0;whiteSpace=wrap;html=1;" vertex="1" parent="1">
          <mxGeometry x="353.25" y="50" width="120" height="60" as="geometry" />
        </mxCell>
        <mxCell id="UHteKjYBCO6sBVWpJjxk-3" value="&lt;font style=&quot;font-size: 20px;&quot;&gt;業務邏輯層&lt;br&gt;&lt;br&gt;&lt;br&gt;&lt;br&gt;&lt;br&gt;&lt;br&gt;&lt;/font&gt;" style="rounded=0;whiteSpace=wrap;html=1;align=left;" vertex="1" parent="1">
          <mxGeometry x="161" y="230" width="506" height="180" as="geometry" />
        </mxCell>
        <mxCell id="UHteKjYBCO6sBVWpJjxk-4" value="&lt;font style=&quot;font-size: 29px;&quot;&gt;數據處理&lt;/font&gt;" style="rounded=0;whiteSpace=wrap;html=1;" vertex="1" parent="1">
          <mxGeometry x="240" y="287.5" width="150" height="85" as="geometry" />
        </mxCell>
        <mxCell id="UHteKjYBCO6sBVWpJjxk-5" value="&lt;font style=&quot;font-size: 29px;&quot;&gt;數據交互&lt;/font&gt;" style="rounded=0;whiteSpace=wrap;html=1;" vertex="1" parent="1">
          <mxGeometry x="430" y="287.5" width="150" height="85" as="geometry" />
        </mxCell>
        <mxCell id="UHteKjYBCO6sBVWpJjxk-6" value="" style="shape=flexArrow;endArrow=classic;startArrow=classic;html=1;rounded=0;entryX=0.5;entryY=1;entryDx=0;entryDy=0;exitX=0.499;exitY=-0.012;exitDx=0;exitDy=0;exitPerimeter=0;" edge="1" parent="1" source="UHteKjYBCO6sBVWpJjxk-3" target="UHteKjYBCO6sBVWpJjxk-1">
          <mxGeometry width="100" height="100" relative="1" as="geometry">
            <mxPoint x="40" y="250" as="sourcePoint" />
            <mxPoint x="140" y="150" as="targetPoint" />
          </mxGeometry>
        </mxCell>
        <mxCell id="UHteKjYBCO6sBVWpJjxk-7" value="" style="shape=flexArrow;endArrow=classic;startArrow=classic;html=1;rounded=0;entryX=0.5;entryY=1;entryDx=0;entryDy=0;" edge="1" parent="1" target="UHteKjYBCO6sBVWpJjxk-3">
          <mxGeometry width="100" height="100" relative="1" as="geometry">
            <mxPoint x="413" y="510" as="sourcePoint" />
            <mxPoint x="413.25" y="420" as="targetPoint" />
          </mxGeometry>
        </mxCell>
        <mxCell id="UHteKjYBCO6sBVWpJjxk-8" value="&lt;font style=&quot;font-size: 22px;&quot;&gt;數據層&lt;br&gt;&lt;br&gt;&lt;br&gt;&lt;br&gt;&lt;br&gt;&lt;/font&gt;" style="rounded=0;whiteSpace=wrap;html=1;align=left;" vertex="1" parent="1">
          <mxGeometry x="292.75" y="509" width="241" height="150" as="geometry" />
        </mxCell>
        <mxCell id="UHteKjYBCO6sBVWpJjxk-9" value="&lt;font style=&quot;font-size: 33px;&quot;&gt;Mysql&lt;/font&gt;" style="rounded=0;whiteSpace=wrap;html=1;" vertex="1" parent="1">
          <mxGeometry x="333.25" y="549" width="160" height="80" as="geometry" />
        </mxCell>
      </root>
    </mxGraphModel>
  </diagram>
</mxfile>
